<svg xmlns="http://www.w3.org/2000/svg" xmlns:xlink="http://www.w3.org/1999/xlink" contentStyleType="text/css" data-diagram-type="DESCRIPTION" height="254px" preserveAspectRatio="none" style="width:354px;height:254px;background:#FFFFFF;" version="1.1" viewBox="0 0 354 254" width="354px" zoomAndPan="magnify"><?plantuml 1.2026.6?><defs/><g><!--entity P--><g class="entity" data-qualified-name="P" data-source-line="10" id="ent0001"><rect fill="#E8EEF7" height="58.1358" rx="2.5" ry="2.5" style="stroke:#555555;stroke-width:0.5;" width="178.6334" x="96.5" y="12"/><text fill="#000000" font-family="'DejaVu Sans'" font-size="14" lengthAdjust="spacing" textLength="126.6155" x="106.5" y="36.9659">H&#7907;p &#273;&#7891;ng giao ti&#7871;p</text><text fill="#000000" font-family="'DejaVu Sans'" font-size="14" lengthAdjust="spacing" textLength="158.6334" x="106.5" y="56.0339">Protocol Buffers (.proto)</text></g><!--entity Go--><g class="entity" data-qualified-name="Go" data-source-line="12" id="ent0002"><rect fill="#F5F5F5" height="58.1358" rx="2.5" ry="2.5" style="stroke:#555555;stroke-width:0.5;" width="84.1477" x="77" y="129"/><text fill="#000000" font-family="'DejaVu Sans'" font-size="14" lengthAdjust="spacing" textLength="42.8538" x="87" y="153.9659">M&#227; Go</text><text fill="#000000" font-family="'DejaVu Sans'" font-size="14" lengthAdjust="spacing" textLength="64.1477" x="87" y="173.0339">(m&#225;y ch&#7911;)</text></g><!--entity TS--><g class="entity" data-qualified-name="TS" data-source-line="13" id="ent0003"><rect fill="#F5F5F5" height="58.1358" rx="2.5" ry="2.5" style="stroke:#555555;stroke-width:0.5;" width="120.5056" x="193.5" y="129"/><text fill="#000000" font-family="'DejaVu Sans'" font-size="14" lengthAdjust="spacing" textLength="93.0856" x="203.5" y="153.9659">M&#227; TypeScript</text><text fill="#000000" font-family="'DejaVu Sans'" font-size="14" lengthAdjust="spacing" textLength="100.5056" x="203.5" y="173.0339">(giao di&#7879;n web)</text></g><g class="entity" data-qualified-name="GMN6" data-source-line="18" id="ent0007"><path d="M6,224 L6,253.0679 A0,0 0 0 0 6,253.0679 L232.3092,253.0679 A0,0 0 0 0 232.3092,253.0679 L232.3092,234 L222.3092,224 L123,224 L119,187.3403 L115,224 L6,224 A0,0 0 0 0 6,224" fill="#FEFFDD" style="stroke:#181818;stroke-width:0.5;"/><path d="M222.3092,224 L222.3092,234 L232.3092,234 L222.3092,224" fill="#FEFFDD" style="stroke:#181818;stroke-width:0.5;"/><text fill="#000000" font-family="'DejaVu Sans'" font-size="14" lengthAdjust="spacing" textLength="205.3092" x="12" y="243.9659">Ki&#7875;u d&#7919; li&#7879;u nh&#7845;t qu&#225;n hai ph&#237;a</text></g><g class="link" data-entity-1="ent0001" data-entity-2="ent0002" data-link-type="dependency" id="lnk4"><polygon fill="#181818" points="113.7206,128.6743,116.9831,119.3815,113.3181,123.6906,109.0091,120.0256,113.7206,128.6743" style="stroke:#181818;stroke-width:1;stroke-linejoin:miter;stroke-miterlimit:10;"/><path d="M134.1798,70.2821 C128.5203,75.4419 123.5382,81.3394 120,88 C113.4804,100.2731 112.2614,110.6072 113.3181,123.6906" fill="none" style="stroke:#181818;stroke-width:1;"/><text fill="#000000" font-family="'DejaVu Sans'" font-size="14" lengthAdjust="spacing" textLength="108.3456" x="122" y="104.9659">sinh m&#227; t&#7921; &#273;&#7897;ng</text></g><g class="link" data-entity-1="ent0001" data-entity-2="ent0003" data-link-type="dependency" id="lnk5"><polygon fill="#181818" points="248.2643,128.8391,249.8309,119.1156,246.9863,124.0052,242.0967,121.1605,248.2643,128.8391" style="stroke:#181818;stroke-width:1;stroke-linejoin:miter;stroke-miterlimit:10;"/><path d="M218.2326,70.1388 C223.3366,75.6786 228.1815,81.7301 232,88 C239.5864,100.4568 243.5367,110.9579 246.9863,124.0052" fill="none" style="stroke:#181818;stroke-width:1;"/><text fill="#000000" font-family="'DejaVu Sans'" font-size="14" lengthAdjust="spacing" textLength="108.3456" x="245" y="104.9659">sinh m&#227; t&#7921; &#273;&#7897;ng</text></g><?plantuml-src TOuzIyDG58Rt_8hNTAb31S6YE3XKsmgY55ASkfmcDycroJtnvePInSd1MPmSfOYJY6ipECG_adzY-W5MqNktypxlUSv6eYc82H5DE3D8Os58aPMEf4f8KmnF-9H5fiFAd54iO1-92phFu91AxRyvHru9RE-iXMb87e-b2k1Jb8grH0kt4WQHmBK5jCWT1PepvHron1grJdF-vmbhJ-ZLjBburerbVTVjupAV9lYyB_E7oXD8OXXPpZwIWUffDknoX5Rc-qAdg6ybyz6c3KhHGwszrsvtTd-iEoscwF90rUFYQG8tBFEN9TxbtrX_aWZ7rJ8n5RuGUxBCxnJ6OhZiz1tBwg7HEAZQs4SgLOYuQfeoVr-S_AY25T1t_WKinKPWoCPm3FQNkqugrMq6hypV4Csr6LHOpfuDBhFYII4aYIGiNkaB?></g></svg>